<svg xmlns:dc="http://purl.org/dc/elements/1.1/" xmlns:cc="http://creativecommons.org/ns#" xmlns:rdf="http://www.w3.org/1999/02/22-rdf-syntax-ns#" xmlns:svg="http://www.w3.org/2000/svg" xmlns="http://www.w3.org/2000/svg" xmlns:sodipodi="http://sodipodi.sourceforge.net/DTD/sodipodi-0.dtd" xmlns:inkscape="http://www.inkscape.org/namespaces/inkscape" viewBox="0 0 100 125" version="1.1" x="0px" y="0px"><g transform="translate(0,-952.36219)"><rect style="opacity:1;fill:none;fill-opacity:1;stroke:none;stroke-width:12;stroke-linecap:square;stroke-linejoin:bevel;stroke-miterlimit:4;stroke-dasharray:none;stroke-opacity:1" width="100" height="100" x="0" y="952.36218"/><path style="" d="m 68.859614,965.35007 c -9.2928,-0.15001 -11.5517,6.15485 -11.5517,12.12023 0,0.27429 0.017,0.5373 0.042,0.79515 l -1.6158,-0.0394 c -1.5326,0 -3.9265,-0.39826 -5.4075,-0.89957 -1.8642,-0.63105 -3.1406,-0.93411 -4.2264,-0.0364 -6.1769,5.10737 -6.9813,35.33272 -0.4258,40.43892 2.8059,1.8307 6.9506,0.5182 6.9506,0.5182 l 37.1512,-2.612 c 2.0436,-1.8837 4.3192,-7.4813 5.0354,-12.3864 0.2463,-1.6862 0.2524,-7.23334 0.01,-9.18671 -0.6644,-5.35556 -2.5451,-11.15426 -4.219,-13.00704 -0.9724,-1.07642 -2.659,-1.79775 -4.907,-2.09887 l -1.9449,-0.0476 c -0.012,-0.0786 -0.025,-0.1578 -0.039,-0.23823 -2.1002,-11.36606 -7.8102,-13.20663 -14.8518,-13.32031 z m 2.7528,6.70888 c 4.2944,0.0217 4.649,1.73562 5.3785,6.66441 l -12.6207,-0.28696 c -1.0202,-2.97392 0.089,-5.98696 5.778,-6.33142 0.5334,-0.0323 1.02,-0.0483 1.4642,-0.046 z m -23.4998,7.13934 c 2.5127,0.0316 5.0281,5.90718 5.3344,18.47559 1.1793,26.22022 -10.6812,23.90242 -10.6812,0.2665 0,-12.18728 2.6719,-18.77578 5.3468,-18.74209 z m 3.9235,29.62971 c -1.0347,-0.01 -5.2449,1.3223 -6.8396,1.3223 -0.544,0 1.337,5.4845 3.4757,5.399 2.5214,-0.1008 3.911,-6.3377 3.5766,-6.6721 -0.033,-0.033 -0.1056,-0.048 -0.2127,-0.049 z m -30.7416,1.7903 c -1.5491,0.053 -2.9134,0.8579 -4.1498,3.1094 -1.5253,2.9688 -1.3994,4.3003 -4.919,6.6613 -21.8519995,2.7155 11.8298,30.3798 22.4211,13.6413 3.3737,-5.0845 -0.6685,-9.5184 3.8002,-10.9016 4.4688,-1.3831 8.5987,10.8251 13.3018,9.8013 4.703,-1.0237 5.7007,-10.4013 6.0007,-10.8014 0.3,-0.4 23.1027,0.4001 23.1027,0 0,-0.3956 5.8214,-0.3085 3.9606,-5.4307 -9.0462,0.5462 -24.5395,1.9437 -31.1148,2.3739 0,0 -7.1825,1.2885 -8.9223,-0.8029 -1.9235,-2.3122 -2.9542,-4.8686 -3.4559,-7.3029 -3.7767,1.1139 -9.1097,2.5511 -11.8735,2.0617 -3.2292,-0.9605 -5.8878,-2.4874 -8.1518,-2.4094 z" fill="#000000" fill-opacity="1" fill-rule="evenodd" stroke="none"/></g><text x="0" y="115" fill="#000000" font-size="5px" font-weight="bold" font-family="'Helvetica Neue', Helvetica, Arial-Unicode, Arial, Sans-serif">Created by PC-SSH</text><text x="0" y="120" fill="#000000" font-size="5px" font-weight="bold" font-family="'Helvetica Neue', Helvetica, Arial-Unicode, Arial, Sans-serif">from the Noun Project</text></svg>